
<svg width="140" height="140" viewBox="0 0 140 140" fill="none" xmlns="http://www.w3.org/2000/svg">
<path d="M76 106V112V118" stroke="black" stroke-width="12"/>
<path d="M64 106V112V118" stroke="black" stroke-width="12"/>
<path d="M124 58V64V70" stroke="black" stroke-width="12"/>
<path d="M100 34V40V46" stroke="#FF4A4A" stroke-width="12"/>
<path d="M100 46V52V58" stroke="#FF4A4A" stroke-width="12"/>
<path d="M112 46V52V58" stroke="#FF4A4A" stroke-width="12"/>
<path d="M88 46V52V58" stroke="#FF4A4A" stroke-width="12"/>
<path d="M100 58V64V70" stroke="#FF4A4A" stroke-width="12"/>
<path d="M16 58V64V70" stroke="black" stroke-width="12"/>
<path d="M112 70V76V82" stroke="black" stroke-width="12"/>
<path d="M28 70V76V82" stroke="black" stroke-width="12"/>
<path d="M100 82V88V94" stroke="black" stroke-width="12"/>
<path d="M40 82V88V94" stroke="black" stroke-width="12"/>
<path d="M88 94V100V106" stroke="black" stroke-width="12"/>
<path d="M52 94V100V106" stroke="black" stroke-width="12"/>
<path d="M76 94V100V106" stroke="black" stroke-width="12"/>
<path d="M88 82V88V94" stroke="black" stroke-width="12"/>
<path d="M100 70V76V82" stroke="black" stroke-width="12"/>
<path d="M112 58V64V70" stroke="black" stroke-width="12"/>
<path d="M124 46V52V58" stroke="black" stroke-width="12"/>
<path d="M100 22V28V34" stroke="black" stroke-width="12"/>
<path d="M40 22V28V34" stroke="black" stroke-width="12"/>
<path d="M88 34V40V46" stroke="black" stroke-width="12"/>
<path d="M52 34V40V46" stroke="black" stroke-width="12"/>
<path d="M76 46V52V58" stroke="black" stroke-width="12"/>
<path d="M64 46V52V58" stroke="black" stroke-width="12"/>
<path d="M112 34V40V46" stroke="black" stroke-width="12"/>
<path d="M112 22V28V34" stroke="black" stroke-width="12"/>
<path d="M28 22V28V34" stroke="black" stroke-width="12"/>
<path d="M88 22V28V34" stroke="black" stroke-width="12"/>
<path d="M76 34V40V46" stroke="black" stroke-width="12"/>
<path d="M124 34V40V46" stroke="black" stroke-width="12"/>
<path d="M16 34V40V46" stroke="black" stroke-width="12"/>
</svg>
